<svg id="Ebene_2" data-name="Ebene 2" xmlns="http://www.w3.org/2000/svg" viewBox="0 0 121.89 121.89"><defs><style>.cls-4{fill:none;stroke:#ffcb00;stroke-miterlimit:10;stroke-width:3px;}</style></defs><title>expertenhelfen</title><circle class="cls-4" cx="60.94" cy="60.94" r="59.44"/><circle class="cls-4" cx="48.07" cy="48.07" r="12.87"/><path class="cls-4" d="M48.94,108.62H74.43V84.12a9.18,9.18,0,0,0-9.18-9.18H56.44a7.5,7.5,0,0,0-7.5,7.5Z" transform="translate(-13.61 -13.99)"/><circle class="cls-4" cx="82.88" cy="48.07" r="12.87"/><path class="cls-4" d="M109.36,108.62H83.88V84.12a9.18,9.18,0,0,1,9.18-9.18h8.8a7.5,7.5,0,0,1,7.5,7.5Z" transform="translate(-13.61 -13.99)"/><circle class="cls-4" cx="64.64" cy="37.2" r="12.87"/><path class="cls-4" d="M91.12,97.75H65.64V73.25a9.18,9.18,0,0,1,9.18-9.18h8.8a7.5,7.5,0,0,1,7.5,7.5Z" transform="translate(-13.61 -13.99)"/></svg>