<svg id="Ebene_1" data-name="Ebene 1" xmlns="http://www.w3.org/2000/svg" viewBox="0 0 121.89 121.89"><defs><style>.cls-1,.cls-2{fill:#ffcb00;}.cls-1,.cls-2,.cls-3{stroke:#ffcb00;stroke-miterlimit:10;}.cls-1{stroke-width:0.75px;}.cls-2{stroke-width:2px;}.cls-3{fill:none;stroke-width:3px;}.cls-0{font-size:30px;fill:#fff;font-family:MyriadPro-Regular, Myriad Pro;}</style></defs><title>AusderPraxisfürdiePraxis</title><circle class="cls-1" cx="44.44" cy="74.03" r="18.76"/><path class="cls-1" d="M59.61,69.82V67.18a.48.48,0,0,0-.51-.45H57a.48.48,0,0,0-.5.45v2.64a.48.48,0,0,0,.5.45H59.1A.48.48,0,0,0,59.61,69.82Z" transform="translate(-13.61 -14.99)"/><path class="cls-1" d="M52.94,70.44,52,68a.49.49,0,0,0-.63-.25l-2,.72a.49.49,0,0,0-.32.6L50,71.51a.47.47,0,0,0,.62.25l1-.36,1-.36A.47.47,0,0,0,52.94,70.44Z" transform="translate(-13.61 -14.99)"/><path class="cls-1" d="M46.89,73.31l-1.69-2a.48.48,0,0,0-.68,0l-1.61,1.35a.48.48,0,0,0-.1.67l1.7,2a.48.48,0,0,0,.67,0l.81-.68L46.8,74A.48.48,0,0,0,46.89,73.31Z" transform="translate(-13.61 -14.99)"/><path class="cls-1" d="M42.19,78.08l-2.28-1.32a.48.48,0,0,0-.65.2l-1,1.83a.47.47,0,0,0,.14.66l2.29,1.32a.47.47,0,0,0,.64-.21l.52-.91.53-.91A.47.47,0,0,0,42.19,78.08Z" transform="translate(-13.61 -14.99)"/><path class="cls-1" d="M39.4,84.16l-2.6-.46a.48.48,0,0,0-.53.42l-.37,2.07a.5.5,0,0,0,.36.58l2.6.45a.46.46,0,0,0,.53-.41l.19-1,.18-1A.47.47,0,0,0,39.4,84.16Z" transform="translate(-13.61 -14.99)"/><path class="cls-1" d="M38.86,90.83l-2.6.46a.49.49,0,0,0-.36.57l.37,2.08a.47.47,0,0,0,.53.41l2.6-.45a.48.48,0,0,0,.36-.58l-.18-1-.19-1A.47.47,0,0,0,38.86,90.83Z" transform="translate(-13.61 -14.99)"/><path class="cls-1" d="M40.64,97.28,38.35,98.6a.47.47,0,0,0-.14.66l1,1.83a.49.49,0,0,0,.65.21L42.19,100a.47.47,0,0,0,.14-.66l-.53-.91-.52-.92A.48.48,0,0,0,40.64,97.28Z" transform="translate(-13.61 -14.99)"/><path class="cls-1" d="M44.51,102.74l-1.7,2a.47.47,0,0,0,.1.67l1.61,1.36a.48.48,0,0,0,.68,0l1.69-2a.47.47,0,0,0-.09-.66L46,103.4l-.81-.68A.47.47,0,0,0,44.51,102.74Z" transform="translate(-13.61 -14.99)"/><path class="cls-1" d="M50,106.55,49.11,109a.48.48,0,0,0,.32.59l2,.72a.47.47,0,0,0,.63-.25l.9-2.48a.46.46,0,0,0-.31-.59l-1-.37-1-.36A.47.47,0,0,0,50,106.55Z" transform="translate(-13.61 -14.99)"/><path class="cls-1" d="M56.49,108.24v2.64a.48.48,0,0,0,.5.45H59.1a.48.48,0,0,0,.51-.45v-2.64a.48.48,0,0,0-.51-.45H57A.48.48,0,0,0,56.49,108.24Z" transform="translate(-13.61 -14.99)"/><path class="cls-1" d="M63.16,107.61l.9,2.48a.47.47,0,0,0,.63.25l2-.72A.48.48,0,0,0,67,109l-.91-2.48a.47.47,0,0,0-.62-.26l-1,.36-1,.37A.46.46,0,0,0,63.16,107.61Z" transform="translate(-13.61 -14.99)"/><path class="cls-1" d="M69.2,104.74l1.7,2a.48.48,0,0,0,.68,0l1.61-1.36a.48.48,0,0,0,.1-.67l-1.7-2a.47.47,0,0,0-.67,0l-.81.68-.81.68A.47.47,0,0,0,69.2,104.74Z" transform="translate(-13.61 -14.99)"/><path class="cls-1" d="M73.91,100l2.28,1.32a.48.48,0,0,0,.64-.21l1.06-1.83a.47.47,0,0,0-.14-.66l-2.29-1.32a.48.48,0,0,0-.64.21l-.53.92-.52.91A.47.47,0,0,0,73.91,100Z" transform="translate(-13.61 -14.99)"/><path class="cls-1" d="M76.7,93.9l2.6.45a.47.47,0,0,0,.53-.41l.36-2.08a.47.47,0,0,0-.35-.57l-2.6-.46a.47.47,0,0,0-.53.42l-.19,1-.18,1A.48.48,0,0,0,76.7,93.9Z" transform="translate(-13.61 -14.99)"/><path class="cls-1" d="M77.24,87.22l2.6-.45a.48.48,0,0,0,.35-.58l-.36-2.07a.48.48,0,0,0-.53-.42l-2.6.46a.47.47,0,0,0-.36.57l.18,1,.19,1A.46.46,0,0,0,77.24,87.22Z" transform="translate(-13.61 -14.99)"/><path class="cls-1" d="M75.46,80.77l2.29-1.32a.47.47,0,0,0,.14-.66L76.83,77a.47.47,0,0,0-.64-.2l-2.28,1.32a.47.47,0,0,0-.14.66l.52.91.53.91A.47.47,0,0,0,75.46,80.77Z" transform="translate(-13.61 -14.99)"/><path class="cls-1" d="M71.59,75.31l1.7-2a.48.48,0,0,0-.1-.67l-1.61-1.35a.48.48,0,0,0-.68,0l-1.7,2a.48.48,0,0,0,.1.67l.81.68.81.68A.48.48,0,0,0,71.59,75.31Z" transform="translate(-13.61 -14.99)"/><path class="cls-1" d="M66.08,71.51,67,69a.49.49,0,0,0-.32-.6l-2-.72a.49.49,0,0,0-.63.25l-.9,2.48a.47.47,0,0,0,.31.6l1,.36,1,.36A.47.47,0,0,0,66.08,71.51Z" transform="translate(-13.61 -14.99)"/><circle class="cls-2" cx="77.29" cy="48.72" r="18.76"/><path class="cls-2" d="M90.68,44.44l-.24-2.63a.48.48,0,0,0-.54-.4l-2.1.19a.48.48,0,0,0-.46.5l.24,2.63a.48.48,0,0,0,.55.4l1.05-.1,1-.09A.48.48,0,0,0,90.68,44.44Z" transform="translate(-13.61 -14.99)"/><path class="cls-2" d="M84.11,45.68,83,43.29a.49.49,0,0,0-.65-.19l-1.91.9a.48.48,0,0,0-.26.62L81.29,47a.49.49,0,0,0,.65.19l1-.45,1-.45A.48.48,0,0,0,84.11,45.68Z" transform="translate(-13.61 -14.99)"/><path class="cls-2" d="M78.35,49.09l-1.88-1.86a.49.49,0,0,0-.67,0l-1.49,1.5a.5.5,0,0,0,0,.68l1.88,1.85a.47.47,0,0,0,.67,0l.74-.74.75-.75A.49.49,0,0,0,78.35,49.09Z" transform="translate(-13.61 -14.99)"/><path class="cls-2" d="M74.1,54.27l-2.39-1.11a.48.48,0,0,0-.62.27l-.88,1.92a.47.47,0,0,0,.2.64L72.8,57.1a.48.48,0,0,0,.62-.27l.44-1,.44-1A.47.47,0,0,0,74.1,54.27Z" transform="translate(-13.61 -14.99)"/><path class="cls-2" d="M71.89,60.58l-2.63-.21a.47.47,0,0,0-.49.46l-.18,2.1a.48.48,0,0,0,.41.54l2.63.22a.48.48,0,0,0,.49-.47l.09-1,.09-1.05A.48.48,0,0,0,71.89,60.58Z" transform="translate(-13.61 -14.99)"/><path class="cls-2" d="M72,67.28,69.42,68a.49.49,0,0,0-.31.6l.56,2a.47.47,0,0,0,.57.36l2.54-.69a.49.49,0,0,0,.31-.6l-.28-1-.28-1A.47.47,0,0,0,72,67.28Z" transform="translate(-13.61 -14.99)"/><path class="cls-2" d="M74.32,73.54l-2.15,1.52a.48.48,0,0,0-.08.67l1.22,1.73a.48.48,0,0,0,.66.14l2.15-1.52a.47.47,0,0,0,.08-.67l-.61-.86L75,73.69A.47.47,0,0,0,74.32,73.54Z" transform="translate(-13.61 -14.99)"/><path class="cls-2" d="M78.68,78.62l-1.5,2.17a.47.47,0,0,0,.16.65l1.73,1.2a.48.48,0,0,0,.67-.08l1.5-2.17a.48.48,0,0,0-.15-.66l-.87-.6-.87-.6A.48.48,0,0,0,78.68,78.62Z" transform="translate(-13.61 -14.99)"/><path class="cls-2" d="M84.52,81.9l-.67,2.55a.47.47,0,0,0,.37.56l2,.54a.48.48,0,0,0,.6-.31l.67-2.55a.49.49,0,0,0-.37-.57l-1-.26-1-.27A.48.48,0,0,0,84.52,81.9Z" transform="translate(-13.61 -14.99)"/><path class="cls-2" d="M91.12,83l.25,2.63a.48.48,0,0,0,.54.41l2.1-.2a.48.48,0,0,0,.46-.49l-.25-2.63a.48.48,0,0,0-.54-.41l-1.05.1-1,.1A.48.48,0,0,0,91.12,83Z" transform="translate(-13.61 -14.99)"/><path class="cls-2" d="M97.7,81.75l1.13,2.38a.47.47,0,0,0,.64.2l1.91-.9a.48.48,0,0,0,.26-.63l-1.12-2.38a.49.49,0,0,0-.65-.2l-1,.45-1,.46A.47.47,0,0,0,97.7,81.75Z" transform="translate(-13.61 -14.99)"/><path class="cls-2" d="M103.46,78.34l1.87,1.85a.48.48,0,0,0,.68,0l1.48-1.5a.47.47,0,0,0,0-.67l-1.87-1.86a.48.48,0,0,0-.67,0l-.75.75-.74.75A.49.49,0,0,0,103.46,78.34Z" transform="translate(-13.61 -14.99)"/><path class="cls-2" d="M107.7,73.16l2.4,1.1a.47.47,0,0,0,.62-.26l.88-1.92a.48.48,0,0,0-.2-.65l-2.4-1.1a.49.49,0,0,0-.62.27l-.44,1-.44,1A.5.5,0,0,0,107.7,73.16Z" transform="translate(-13.61 -14.99)"/><path class="cls-2" d="M109.92,66.84l2.63.22a.48.48,0,0,0,.49-.46l.18-2.1a.49.49,0,0,0-.41-.54l-2.63-.22a.48.48,0,0,0-.49.46l-.09,1.06-.09,1A.48.48,0,0,0,109.92,66.84Z" transform="translate(-13.61 -14.99)"/><path class="cls-2" d="M109.84,60.15l2.55-.69a.48.48,0,0,0,.3-.61l-.55-2a.49.49,0,0,0-.57-.37l-2.55.7a.47.47,0,0,0-.3.6l.28,1,.28,1A.47.47,0,0,0,109.84,60.15Z" transform="translate(-13.61 -14.99)"/><path class="cls-2" d="M107.48,53.89l2.16-1.53a.48.48,0,0,0,.08-.67L108.5,50a.48.48,0,0,0-.66-.15l-2.15,1.53a.47.47,0,0,0-.08.67l.61.86.61.86A.47.47,0,0,0,107.48,53.89Z" transform="translate(-13.61 -14.99)"/><path class="cls-2" d="M103.12,48.81l1.51-2.17a.48.48,0,0,0-.16-.66l-1.73-1.2a.47.47,0,0,0-.67.09L100.56,47a.47.47,0,0,0,.16.65l.87.6.86.61A.49.49,0,0,0,103.12,48.81Z" transform="translate(-13.61 -14.99)"/><path class="cls-2" d="M97.29,45.53,98,43a.49.49,0,0,0-.37-.57l-2-.53a.47.47,0,0,0-.6.31l-.67,2.55a.47.47,0,0,0,.37.56l1,.27,1,.27A.48.48,0,0,0,97.29,45.53Z" transform="translate(-13.61 -14.99)"/><circle class="cls-3" cx="60.94" cy="60.94" r="59.44"/><path class="cls-3" d="M38.89,61.48A18.09,18.09,0,0,1,66,43.07" transform="translate(-13.61 -14.99)"/><polyline class="cls-3" points="49.16 18.04 53.64 28.12 43.41 31.57"/><path class="cls-3" d="M114.57,89a18.09,18.09,0,0,1-27.08,18.41" transform="translate(-13.61 -14.99)"/><polyline class="cls-3" points="77.07 102.47 72.59 92.4 82.82 88.94"/><text class="cls-0" transform="translate(37.99 85.48)">P</text><text class="cls-0" transform="translate(69.99 59.48)">P</text></svg>